<svg width="449" height="57" viewBox="0 0 449 57" fill="none" xmlns="http://www.w3.org/2000/svg">
<path d="M63.5 40.5V38.5C63.5 36 61 34 58.5 34C55.5 36.5 52.5 36.5 49.5 34C47 34 44.5 36 44.5 38.5V40.5H63.5Z" fill="#92D3F5"/>
<path d="M57.1 20C57.7 20.05 58.7 20.75 59.6 24.35V24.55C59.3598 25.553 59.0075 26.5258 58.55 27.45C58.55 27.45 57.6 28.95 57.2 26.85C55.0579 26.2499 52.7921 26.2499 50.65 26.85C50.25 28.95 49.3 27.45 49.3 27.45C48.8425 26.5258 48.4903 25.553 48.25 24.55V24.35C49.65 18.8 51.35 20.05 51.35 20.05C53.55 21 53.75 21.15 56.65 20.05C56.65 20.05 56.9 19.95 57.25 19.8L57.1 20Z" fill="#FCEA2B"/>
<path d="M56.8 27.6H51.3V31.4H56.8V27.6Z" fill="#FCEA2B"/>
<path d="M59.55 24.5V24.3C58.65 20.7 57.65 20 57.05 19.95V19.8C56.8754 19.8885 56.6907 19.9556 56.5 20C53.6 21.1 53.45 20.95 51.2 20C51.2 20 49.5 18.75 48.1 24.3V24.5C47.4929 22.2571 47.8557 19.8623 49.1 17.9C50.7 15.45 55.55 16.7 55.55 16.7L57.1 15.5L57.65 17.05L59.45 15.85C59.8124 16.7728 59.5745 17.8233 58.85 18.5L58.9 18.55C59.7917 20.4004 60.0212 22.5008 59.55 24.5ZM58.7 30.15C58.4361 30.6608 58.0801 31.1185 57.65 31.5C56.6264 32.3824 55.299 32.8307 53.95 32.75H53.8C52.451 32.8307 51.1237 32.3824 50.1 31.5C49.6845 31.1051 49.3305 30.65 49.05 30.15C48.313 28.7885 47.9832 27.2437 48.1 25.7C48.15 25.2 48.15 24.7 48.15 24.5C48.3903 25.5029 48.7425 26.4757 49.2 27.4C49.2 27.4 50.2 28.9 50.55 26.8C52.6921 26.1998 54.9579 26.1998 57.1 26.8C57.5 28.9 58.45 27.4 58.45 27.4C58.9076 26.4757 59.2598 25.5029 59.5 24.5C59.5944 24.8932 59.6447 25.2956 59.65 25.7C59.7668 27.2437 59.437 28.7885 58.7 30.15ZM56 28.55C55.9994 28.2741 55.7759 28.0506 55.5 28.05L53.95 28.8L52.45 28.05C52.1896 28.0343 51.9657 28.2326 51.95 28.4931C51.9489 28.512 51.9489 28.531 51.95 28.55V29.5C51.95 29.85 52.75 30.5 53.95 30.5C55.15 30.5 55.95 29.85 55.95 29.5V28.55H56Z" fill="#F1B31C"/>
<path d="M63.5 40V38.5C63.5 36 61 34 58.5 34C55.5 36.5 52.5 36.5 49.5 34C47 34 44.5 36 44.5 38.5V40" stroke="black" stroke-width="2" stroke-linecap="round" stroke-linejoin="round"/>
<path d="M56 23.35C56.5523 23.35 57 23.7977 57 24.35C57 24.9023 56.5523 25.35 56 25.35C55.4477 25.35 55 24.9023 55 24.35C55.0016 23.7984 55.4484 23.3516 56 23.35Z" fill="black"/>
<path d="M55.95 28.25C56.0583 28.4986 55.947 28.788 55.7 28.9C55.1599 29.1791 54.5578 29.3168 53.95 29.3C53.361 29.2923 52.7807 29.1557 52.25 28.9C52.0031 28.788 51.8918 28.4986 52 28.25C52.0933 28.0248 52.3514 27.9178 52.5766 28.0111C52.6022 28.0217 52.6268 28.0347 52.65 28.05C53.4405 28.5 54.4096 28.5 55.2 28.05C55.4626 27.8997 55.7972 27.9889 55.95 28.25Z" fill="black"/>
<path d="M52 23.35C52.5523 23.35 53 23.7977 53 24.35C53 24.9023 52.5523 25.35 52 25.35C51.4477 25.35 51 24.9023 51 24.35C51.0016 23.7984 51.4484 23.3516 52 23.35Z" fill="black"/>
<path d="M48.15 24.5C48.15 24.7 48.15 25.2 48.1 25.7C47.9832 27.2437 48.313 28.7885 49.05 30.15C49.3305 30.65 49.6845 31.105 50.1 31.5C51.1271 32.3764 52.4519 32.824 53.8 32.75" stroke="black" stroke-width="2" stroke-linecap="round" stroke-linejoin="round"/>
<path d="M59.6 24.35V24.55C59.3598 25.553 59.0076 26.5258 58.55 27.45C58.55 27.45 57.6 28.95 57.2 26.85C55.0579 26.2499 52.7921 26.2499 50.65 26.85C50.25 28.95 49.3 27.45 49.3 27.45C48.8425 26.5258 48.4903 25.553 48.25 24.55C48.25 24.5 48.15 23.9 48.15 23.8" stroke="black" stroke-width="2" stroke-linecap="round" stroke-linejoin="round"/>
<path d="M59.6 24.5C59.6 24.7 59.65 25.2 59.65 25.7C59.7668 27.2437 59.4371 28.7885 58.7001 30.15C58.4361 30.6608 58.0801 31.1184 57.65 31.5C56.6264 32.3824 55.2991 32.8308 53.9501 32.75H53.8" stroke="black" stroke-width="2" stroke-linecap="round" stroke-linejoin="round"/>
<path d="M48.15 24.5C47.5429 22.2571 47.9057 19.8624 49.15 17.9C50.75 15.45 55.6 16.7 55.6 16.7L57.15 15.5L57.7 17.05L59.4 15.8C59.7623 16.7228 59.5245 17.7733 58.8 18.45C58.2962 18.9681 57.7035 19.3915 57.05 19.7C56.8633 19.8122 56.6611 19.8964 56.45 19.95C53.55 21.05 53.4 20.9 51.15 19.95C51.15 19.95 49.5 18.7 48.1 24.25" stroke="black" stroke-width="2" stroke-linecap="round" stroke-linejoin="round"/>
<path d="M57 19.95H57.1C57.7 20 58.7 20.7 59.6 24.3" stroke="black" stroke-width="2" stroke-linecap="round" stroke-linejoin="round"/>
<path d="M58.9 18.55C59.7935 20.3989 60.04 22.4943 59.6 24.5" stroke="black" stroke-width="2" stroke-linecap="round" stroke-linejoin="round"/>
<path d="M294 44.6667C303.205 44.6667 310.667 37.2047 310.667 28C310.667 18.7952 303.205 11.3333 294 11.3333C284.795 11.3333 277.333 18.7952 277.333 28C277.333 37.2047 284.795 44.6667 294 44.6667Z" fill="#FCEA2B"/>
<path d="M286.391 17.748L291.937 16.9142L289.225 21.8233L291.732 26.8401L286.225 25.7783L282.228 29.7126L281.536 24.1472L276.56 21.5619L281.639 19.1842L282.56 13.652L286.391 17.748Z" fill="#F1B31C"/>
<path d="M301.557 17.748L296.011 16.9142L298.723 21.8233L296.216 26.8401L301.723 25.7783L305.719 29.7126L306.411 24.1472L311.388 21.5619L306.309 19.1842L305.388 13.652L301.557 17.748Z" fill="#F1B31C"/>
<path d="M303.54 35.1917C302.297 38.1569 299.13 40.2125 294.026 40.2125C288.88 40.2125 285.672 38.1083 284.443 35.1014C285.852 35.4208 294.845 37.3027 303.54 35.1917Z" fill="#EA5A47"/>
<path d="M304.144 32.0736C304.144 33.1847 303.942 34.2333 303.54 35.1917C294.845 37.3028 285.852 35.4208 284.442 35.1014C284.061 34.1639 283.866 33.1431 283.866 32.0736H283.942C283.942 32.0736 294.227 34.5667 304.005 32.1222L304.144 32.0736Z" fill="white"/>
<path d="M304.144 32.0736C304.144 33.1847 303.942 34.2333 303.54 35.1917C294.845 37.3028 285.852 35.4208 284.442 35.1014C284.061 34.1639 283.866 33.1431 283.866 32.0736H283.942C283.942 32.0736 294.227 34.5667 304.005 32.1222L304.144 32.0736Z" stroke="black" stroke-width="2" stroke-miterlimit="10" stroke-linecap="round" stroke-linejoin="round"/>
<path d="M303.54 35.1917C302.297 38.1569 299.13 40.2125 294.026 40.2125C288.88 40.2125 285.672 38.1083 284.442 35.1014C285.852 35.4208 294.845 37.3027 303.54 35.1917Z" stroke="black" stroke-width="2" stroke-miterlimit="10" stroke-linejoin="round"/>
<path d="M303.88 35.1083C303.769 35.1361 303.651 35.1639 303.54 35.1917" stroke="black" stroke-width="2" stroke-miterlimit="10" stroke-linejoin="round"/>
<path d="M284.442 35.1014C284.31 35.0667 284.248 35.0528 284.248 35.0528" stroke="black" stroke-width="2" stroke-miterlimit="10" stroke-linejoin="round"/>
<path d="M301.329 13.8049C299.134 12.6692 296.642 12.0278 294 12.0278C291.254 12.0278 288.669 12.7208 286.412 13.9414C286.378 13.9602 286.343 13.9792 286.308 13.9983" stroke="black" stroke-width="2" stroke-miterlimit="10" stroke-linecap="round" stroke-linejoin="round"/>
<path d="M278.163 25.9135C278.074 26.5963 278.028 27.2928 278.028 28C278.028 36.821 285.178 43.9722 294 43.9722C302.821 43.9722 309.972 36.821 309.972 28C309.972 27.3005 309.927 26.6115 309.84 25.9357" stroke="black" stroke-width="2" stroke-miterlimit="10" stroke-linecap="round" stroke-linejoin="round"/>
<path d="M286.443 17.748L291.989 16.9142L289.277 21.8233L291.784 26.8401L286.277 25.7783L282.281 29.7126L281.589 24.1472L276.612 21.5619L281.691 19.1842L282.612 13.652L286.443 17.748Z" stroke="black" stroke-width="2" stroke-miterlimit="10" stroke-linecap="round" stroke-linejoin="round"/>
<path d="M301.557 17.748L296.011 16.9142L298.723 21.8233L296.216 26.8401L301.723 25.7783L305.719 29.7126L306.411 24.1472L311.388 21.5619L306.309 19.1842L305.388 13.652L301.557 17.748Z" stroke="black" stroke-width="2" stroke-miterlimit="10" stroke-linecap="round" stroke-linejoin="round"/>
<path d="M101 41.4167C108.41 41.4167 114.417 35.4098 114.417 28C114.417 20.5902 108.41 14.5833 101 14.5833C93.5902 14.5833 87.5834 20.5902 87.5834 28C87.5834 35.4098 93.5902 41.4167 101 41.4167Z" fill="#FCEA2B"/>
<path d="M109.514 31.29C109.521 32.1881 109.348 33.0786 109.006 33.9092C101.72 35.6767 94.1721 34.1075 92.9704 33.8333C92.6445 33.0253 92.48 32.1613 92.4863 31.29H92.5504C92.5504 31.29 101.184 33.3842 109.403 31.3308L109.514 31.29Z" fill="white"/>
<path d="M109.006 33.9092C107.962 36.4 105.302 38.1267 101.02 38.1267C96.698 38.1267 94.003 36.3592 92.9705 33.8333C94.1721 34.1075 101.72 35.6767 109.006 33.9092Z" fill="#EA5A47"/>
<path d="M101 41.4167C108.41 41.4167 114.417 35.4098 114.417 28C114.417 20.5902 108.41 14.5833 101 14.5833C93.5902 14.5833 87.5834 20.5902 87.5834 28C87.5834 35.4098 93.5902 41.4167 101 41.4167Z" stroke="black" stroke-width="2" stroke-linecap="round" stroke-linejoin="round"/>
<path d="M109.514 31.29C109.521 32.1881 109.348 33.0786 109.006 33.9092C101.72 35.6767 94.1721 34.1075 92.9704 33.8333C92.6445 33.0253 92.48 32.1613 92.4863 31.29H92.5504C92.5504 31.29 101.184 33.3842 109.403 31.3308L109.514 31.29Z" stroke="black" stroke-width="2" stroke-linecap="round" stroke-linejoin="round"/>
<path d="M109.006 33.9092C107.962 36.4 105.302 38.1267 101.02 38.1267C96.698 38.1267 94.003 36.3592 92.9705 33.8333C94.1721 34.1075 101.72 35.6767 109.006 33.9092Z" stroke="black" stroke-width="2" stroke-linecap="round" stroke-linejoin="round"/>
<path d="M98.4883 25.9021C98.2717 25.4147 97.9185 25.0006 97.4713 24.7099C97.0241 24.4192 96.5022 24.2645 95.9688 24.2645C95.4355 24.2645 94.9136 24.4192 94.4664 24.7099C94.0192 25.0006 93.6659 25.4147 93.4493 25.9021" stroke="black" stroke-width="2" stroke-miterlimit="10" stroke-linecap="round"/>
<path d="M108.551 25.9021C108.334 25.4147 107.981 25.0006 107.534 24.7099C107.087 24.4192 106.565 24.2645 106.031 24.2645C105.498 24.2645 104.976 24.4192 104.529 24.7099C104.082 25.0006 103.728 25.4147 103.512 25.9021" stroke="black" stroke-width="2" stroke-miterlimit="10" stroke-linecap="round"/>
<path d="M336.917 42.5833V40.25C336.917 37.3368 339.838 35 342.75 35C346.25 37.9167 349.75 37.9167 353.25 35C356.163 35 359.083 37.3368 359.083 40.25V42.5833" fill="#92D3F5"/>
<path d="M342.167 29.75C339.833 29.75 339.833 26.25 339.833 22.1667C339.833 18.0833 342.167 14 348 14C353.833 14 356.167 18.0833 356.167 22.1667C356.167 26.25 356.167 29.75 353.833 29.75" fill="#E27022"/>
<path d="M341.546 25.0833C341.546 30.3333 344.426 33.25 347.963 33.25C351.426 33.25 354.417 30.3333 354.417 25.0833C354.417 23.3333 353.833 22.1664 353.833 22.1664C352.083 20.4167 349.75 17.4997 349.75 17.4997C347.417 19.2497 345.667 20.9997 342.167 21.5833C342.167 21.5833 341.546 22.1664 341.546 25.0833Z" fill="#FCEA2B"/>
<path d="M342.167 29.75C339.833 29.75 339.833 26.25 339.833 22.1667C339.833 18.0833 342.167 14 348 14C353.833 14 356.167 18.0833 356.167 22.1667C356.167 26.25 356.167 29.75 353.833 29.75" stroke="black" stroke-width="2" stroke-linecap="round" stroke-linejoin="round"/>
<path d="M336.917 42V40.25C336.917 37.3368 339.838 35 342.75 35C346.25 37.9167 349.75 37.9167 353.25 35C356.163 35 359.083 37.3368 359.083 40.25V42" stroke="black" stroke-width="2" stroke-linecap="round" stroke-linejoin="round"/>
<path d="M351.426 24.5C351.426 25.1443 350.903 25.6667 350.259 25.6667C349.615 25.6667 349.093 25.1443 349.093 24.5C349.093 23.8557 349.615 23.3333 350.259 23.3333C350.903 23.3333 351.426 23.8557 351.426 24.5Z" fill="black"/>
<path d="M346.759 24.5C346.759 25.1443 346.237 25.6667 345.593 25.6667C344.948 25.6667 344.426 25.1443 344.426 24.5C344.426 23.8557 344.948 23.3333 345.593 23.3333C346.237 23.3333 346.759 23.8557 346.759 24.5Z" fill="black"/>
<path d="M341.546 25.0833C341.546 30.3333 344.426 33.25 347.963 33.25C351.426 33.25 354.417 30.3333 354.417 25.0833C354.417 23.3333 353.833 22.1664 353.833 22.1664C352.083 20.4167 349.75 17.4997 349.75 17.4997C347.417 19.2497 345.667 20.9997 342.167 21.5833C342.167 21.5833 341.546 22.1664 341.546 25.0833Z" stroke="black" stroke-width="2" stroke-linejoin="round"/>
<path d="M346.25 29.1667C347.381 29.7141 348.583 29.75 349.75 29.1667" stroke="black" stroke-width="2" stroke-linecap="round" stroke-linejoin="round"/>
<path d="M427.197 25.7659C427.182 25.9309 427.049 26.0644 426.883 26.0821C424.877 26.2971 423.333 28.2727 423.333 30.6776C423.333 33.226 425.101 35.2918 427.281 35.2918H442.33C444.725 35.2918 446.667 33.1086 446.667 30.4155C446.667 27.8346 444.883 25.722 442.627 25.5505C442.454 25.5374 442.314 25.4165 442.281 25.2474C441.777 22.6587 439.452 20.7134 436.702 20.7134C434.915 20.7134 433.323 21.5224 432.29 22.8093C432.189 22.935 432.019 22.9926 431.87 22.9301C431.472 22.7633 431.052 22.6826 430.582 22.6826C428.806 22.6826 427.348 24.0381 427.197 25.7659Z" fill="white"/>
<path d="M427.197 25.7659C427.182 25.9309 427.049 26.0644 426.885 26.082C424.877 26.2961 423.333 28.2721 423.333 30.6776C423.333 33.226 425.101 35.2918 427.281 35.2918H442.33C444.725 35.2918 446.667 33.1086 446.667 30.4155C446.667 27.8341 444.883 25.7212 442.626 25.5504C442.454 25.5374 442.314 25.4165 442.281 25.2473C441.777 22.6587 439.451 20.7134 436.702 20.7134C434.915 20.7134 433.322 21.5229 432.289 22.8106C432.188 22.9357 432.02 22.9933 431.872 22.9311C431.474 22.7636 431.053 22.6826 430.582 22.6826C428.806 22.6826 427.348 24.0381 427.197 25.7659Z" stroke="black" stroke-width="2" stroke-miterlimit="10" stroke-linecap="round" stroke-linejoin="round"/>
<path d="M13.8873 39.1417C15.7458 39.1417 16.8075 38.269 17.0591 37.1385H10.7163C10.9679 38.269 12.0288 39.1417 13.8873 39.1417Z" fill="#D0CFCE"/>
<path d="M17.6945 18.0483C17.6945 18.0483 12.9384 16.7039 10.6167 18.5418C8.29547 20.3797 7.64136 24.6085 7.64136 24.6085C7.86878 25.4691 9.2848 27.9113 9.2848 27.9113C9.4948 28.2656 10.161 31.0151 10.5483 32.5236H17.2255C17.5624 31.4172 18.9172 27.2152 19.0941 26.803C19.3212 26.2729 19.7086 25.2412 19.9042 24.8519C20.3747 23.9151 20.1133 23.1194 20.1133 22.1192C20.1133 19.9854 19.3737 19.1147 17.6941 18.0476L17.6945 18.0483Z" fill="#FCEA2B"/>
<path d="M13.8873 16.8008C10.5693 16.8008 7.4706 19.4266 7.4706 22.743C7.4706 23.1626 7.36789 24.4895 7.94388 24.4895C7.94388 24.4895 8.87449 21.4464 11.1958 19.6089C13.517 17.7714 17.2313 18.1603 17.2313 18.1603C16.9729 17.3651 15.073 16.7996 13.8884 16.7996L13.8873 16.8008Z" fill="white"/>
<path d="M20.4361 23.2361C20.4361 24.7858 19.7419 25.5337 18.9762 27.3194C18.7806 27.7752 17.3386 32.5228 17.3386 32.5228H10.6613C10.6613 32.5228 9.50206 27.9844 9.28234 27.615C8.36068 26.0602 7.56384 24.9278 7.56384 23.2361C7.56384 19.6813 10.4455 16.8 14 16.8C17.5548 16.8 20.4361 19.6817 20.4361 23.2361Z" stroke="black" stroke-width="2" stroke-miterlimit="10" stroke-linecap="round" stroke-linejoin="round"/>
<path d="M14 32.3633V27.72" stroke="black" stroke-width="2" stroke-miterlimit="10" stroke-linecap="round" stroke-linejoin="round"/>
<path d="M16.3217 27.72H11.6783" stroke="black" stroke-width="2" stroke-miterlimit="10" stroke-linecap="round" stroke-linejoin="round"/>
<path d="M17.1733 36.8628C17.1733 38.1228 15.7535 39.1444 14.002 39.1444C12.2504 39.1444 10.8306 38.1228 10.8306 36.8628H17.1733Z" stroke="black" stroke-width="1.696" stroke-miterlimit="10" stroke-linecap="round" stroke-linejoin="round"/>
<path d="M10.885 35.3811L17.115 34.0317" stroke="black" stroke-width="1.965" stroke-miterlimit="10" stroke-linecap="round" stroke-linejoin="round"/>
<path d="M14.8555 35.805L17.1032 35.3461" stroke="black" stroke-width="2" stroke-miterlimit="10" stroke-linecap="round" stroke-linejoin="round"/>
<path d="M10.8966 34.0667L13.1444 33.6078" stroke="black" stroke-width="2" stroke-miterlimit="10" stroke-linecap="round" stroke-linejoin="round"/>
<g filter="url(#filter0_d_0_1)">
<path d="M238.806 2.11111H208.194C202.073 2.11111 197.111 7.07329 197.111 13.1944V43.8056C197.111 49.9267 202.073 54.8889 208.194 54.8889H238.806C244.927 54.8889 249.889 49.9267 249.889 43.8056V13.1944C249.889 7.07329 244.927 2.11111 238.806 2.11111Z" fill="white"/>
</g>
<path d="M203.781 22.1667H206.1L210.132 32.013H210.281L214.313 22.1667H216.633V34.8333H214.814V25.6673H214.697L210.961 34.8148H209.452L205.716 25.6611H205.599V34.8333H203.781V22.1667Z" fill="black"/>
<path d="M244.494 28.9105C244.721 28.6838 244.721 28.3162 244.494 28.0895L240.799 24.3948C240.572 24.1681 240.205 24.1681 239.978 24.3948C239.751 24.6216 239.751 24.9892 239.978 25.2159L243.262 28.5L239.978 31.7841C239.751 32.0108 239.751 32.3784 239.978 32.6052C240.205 32.8319 240.572 32.8319 240.799 32.6052L244.494 28.9105ZM221.917 29.0806H244.083V27.9194H221.917V29.0806Z" fill="black"/>
<path d="M388.75 17.2928L386.5 18.1678L382.875 22.4178L380.625 27.7928L381.625 30.4178C382.253 32.3133 383.387 34.0094 385.25 35.4178L386.5 33.7511C386.5 33.7511 388.411 37.606 391.869 38.231C391.869 38.231 397 39.199 399.667 37.7928C401.377 36.8909 401.875 35.5844 401.875 35.5844L403.583 33.8761L404.375 35.0427L405.417 35.0011L408.125 31.3761L409 28.6678L408.917 26.4178L407.75 23.6678L405.333 19.9594C405.333 19.9594 404 17.5011 401.25 18.0011C401.25 18.0011 398 15.5844 395.333 15.9594C392.667 16.3344 393.042 15.3344 388.75 17.2928Z" fill="#F4AA41"/>
<path d="M395 33.6261L393.458 34.8344H392.208L392.167 36.7511L392.542 38.5011L393.083 39.4594L394.5 40.2094L396.792 39.9178L397.583 39.0428L398.083 36.9178L397.958 34.9178L396.958 35.0428L395 33.6261Z" fill="#EA5A47"/>
<path d="M393.25 28.4594L392.458 30.3344L393.542 30.9594L394.167 31.2094L396.333 31.2928L397.792 30.1678L396.917 28.5428L393.25 28.4594Z" fill="#3F3F3F"/>
<path d="M391.753 25.0544C391.753 25.0544 390.85 25.6756 390.379 25.3883C389.907 25.1011 389.757 24.4858 390.045 24.0141C390.332 23.5425 390.947 23.3929 391.419 23.6802C391.891 23.9674 391.753 25.0544 391.753 25.0544Z" fill="black"/>
<path d="M393.554 28.503H396.627C396.828 28.503 397.009 28.6229 397.087 28.8075L397.666 30.1697L396.577 30.7425C396.269 30.9043 395.894 30.7103 395.848 30.3655" stroke="black" stroke-width="2" stroke-miterlimit="10" stroke-linecap="round" stroke-linejoin="round"/>
<path d="M394.38 30.3815C394.324 30.6949 393.992 30.8763 393.698 30.7551L392.541 30.2791L393.086 28.8273C393.159 28.6323 393.346 28.503 393.554 28.503" stroke="black" stroke-width="2" stroke-miterlimit="10" stroke-linecap="round" stroke-linejoin="round"/>
<path d="M392.218 35.0134C392.218 35.0134 391.859 39.4101 393.722 39.9821C395.045 40.3884 396.297 40.2483 396.753 39.8571C397.191 39.4821 398.069 37.6201 397.666 35.0134" stroke="black" stroke-width="2" stroke-miterlimit="10" stroke-linecap="round" stroke-linejoin="round"/>
<path d="M399.132 25.0544C399.132 25.0544 400.034 25.6756 400.506 25.3884C400.978 25.1011 401.127 24.4858 400.84 24.0142C400.553 23.5425 399.937 23.393 399.466 23.6802C398.994 23.9675 399.132 25.0544 399.132 25.0544Z" fill="black"/>
<path d="M389.812 31.4196C389.575 33.2208 390.929 34.2949 391.955 34.8403C392.553 35.1587 393.28 35.0994 393.813 34.6813L395.104 33.6696L396.394 34.6813C396.928 35.0994 397.655 35.1587 398.253 34.8403C399.278 34.2949 400.633 33.2208 400.396 31.4196" stroke="black" stroke-width="2" stroke-miterlimit="10" stroke-linecap="round" stroke-linejoin="round"/>
<path d="M386.975 24.1786C385.817 26.7585 386.721 30.6911 387.035 31.8666C387.096 32.0951 387.073 32.3343 386.971 32.5481L385.978 34.645C385.666 35.3023 384.781 35.4216 384.312 34.8654C382.716 32.9719 380.033 29.1705 381.038 26.5224C384.569 17.2172 388.972 17.451 388.972 17.451C390.394 16.4842 395.524 13.9822 401.378 17.8885C401.378 17.8885 405.694 17.0297 408.847 26.3572C409.749 29.0253 407.132 32.7906 405.571 34.6793C405.106 35.2428 404.213 35.1263 403.9 34.4657L402.913 32.3829C402.812 32.1692 402.789 31.9299 402.85 31.7014C403.163 30.5259 404.067 26.5933 402.909 24.0134" stroke="black" stroke-width="2" stroke-miterlimit="10" stroke-linecap="round" stroke-linejoin="round"/>
<path d="M403.315 33.2314C403.315 33.2314 401.776 36.5922 399.413 37.367" stroke="black" stroke-width="2" stroke-miterlimit="10" stroke-linecap="round" stroke-linejoin="round"/>
<path d="M386.719 33.4845C386.719 33.4845 388.258 36.5256 390.621 37.3005" stroke="black" stroke-width="2" stroke-miterlimit="10" stroke-linecap="round" stroke-linejoin="round"/>
<path d="M395.104 33.6696V32.1546" stroke="black" stroke-width="2" stroke-miterlimit="10" stroke-linecap="round" stroke-linejoin="round"/>
<path d="M171.21 45.5953C171.228 45.5075 171.246 45.4197 171.263 45.3319C171.263 41.7058 168.486 35.8864 168.368 35.6403C168.36 35.6234 168.344 35.6133 168.335 35.5974C168.292 35.5234 168.236 35.4573 168.17 35.4021C168.119 35.3612 168.062 35.3279 168.001 35.3032C167.983 35.2958 167.967 35.2881 167.948 35.2824C167.879 35.2608 167.808 35.2503 167.737 35.2512C167.72 35.2512 167.705 35.2512 167.688 35.2523C167.654 35.2504 167.621 35.2511 167.587 35.2544C163.652 36.1401 159.598 33.4674 158.035 32.2773C158.012 32.2642 157.988 32.2526 157.963 32.2426C157.943 32.2258 157.921 32.2102 157.898 32.1961C157.88 32.1877 157.86 32.1898 157.841 32.1832C157.754 32.1557 157.664 32.1428 157.573 32.1449C157.486 32.1537 157.4 32.1759 157.319 32.2108C157.282 32.2296 157.246 32.2517 157.213 32.2769C157.174 32.3046 157.138 32.3363 157.105 32.3717C157.092 32.3862 157.074 32.3938 157.062 32.4097C157.049 32.4327 157.037 32.4564 157.027 32.4808C157.01 32.5018 156.995 32.5238 156.98 32.5467C156.538 33.5413 155.866 34.4165 155.019 35.1C154.045 35.7519 153.272 36.6633 152.788 37.7313C152.78 37.7499 152.782 37.7694 152.775 37.7883C152.76 37.8329 152.75 37.8789 152.744 37.9255C152.728 38.0589 152.75 38.1941 152.807 38.3157C152.815 38.3335 152.816 38.3529 152.826 38.3701C153.978 40.1871 155.431 41.7944 157.123 43.123C157.517 43.4703 161.793 47.1341 166.576 47.1341C168.106 47.1446 169.609 46.7368 170.923 45.9548C171.052 45.8749 171.15 45.7543 171.202 45.6122L171.21 45.5953Z" fill="#D0CFCE"/>
<path d="M156.425 28.6897C156.429 29.8631 156.374 31.0358 156.26 32.2036C156.248 32.313 156.263 32.4234 156.303 32.5259C156.343 32.6283 156.407 32.7199 156.489 32.7929C156.518 32.819 156.612 32.9014 156.762 33.0253C156.894 32.7829 156.981 32.5987 157.005 32.5462C157.019 32.5232 157.035 32.5012 157.052 32.4802C157.062 32.4559 157.073 32.4321 157.086 32.4092C157.098 32.3933 157.116 32.3857 157.129 32.3711C157.162 32.3358 157.198 32.304 157.237 32.2764C157.27 32.2512 157.306 32.229 157.343 32.2103C157.424 32.1754 157.51 32.1532 157.597 32.1444C157.688 32.1422 157.778 32.1552 157.865 32.1826C157.884 32.1892 157.903 32.1871 157.922 32.1956C157.945 32.2097 157.966 32.2252 157.987 32.242C158.012 32.2521 158.036 32.2637 158.059 32.2767C159.622 33.4669 163.676 36.1396 167.611 35.2539C167.645 35.2506 167.678 35.2499 167.712 35.2517C167.729 35.2504 167.744 35.2508 167.761 35.2507C167.832 35.2497 167.903 35.2602 167.972 35.2818C167.99 35.2876 168.007 35.2953 168.025 35.3026C168.086 35.3273 168.143 35.3606 168.194 35.4015C168.215 35.4191 168.235 35.438 168.254 35.4581C168.295 35.4997 168.33 35.5463 168.359 35.597C168.368 35.6129 168.383 35.6231 168.392 35.6399C168.415 35.6885 168.544 35.9594 168.732 36.3819C169.285 36.1937 169.816 35.9487 170.318 35.6508C170.448 35.574 170.549 35.4571 170.606 35.3177C170.663 35.1784 170.674 35.0242 170.636 34.8783L169.944 32.2182L169.942 32.2112L169.938 32.1944L169.12 29.0491C169.094 28.9506 169.047 28.859 168.982 28.7807C168.917 28.7024 168.836 28.6394 168.744 28.5961C168.365 28.4433 167.967 28.3406 167.561 28.2906C167.262 27.7219 167.111 27.0872 167.121 26.4448C167.675 26.0287 168.145 25.5103 168.505 24.9176C168.643 24.6866 168.734 24.4302 168.771 24.1637C168.809 23.8971 168.793 23.6257 168.725 23.3653C168.598 22.9989 168.392 22.6652 168.12 22.3883C167.849 22.1114 167.519 21.8982 167.155 21.7641C166.539 21.4526 165.996 21.0138 165.562 20.4769C166.197 19.4806 166.557 18.3343 166.607 17.1539C166.607 15.9312 165.607 14.1252 164.176 12.7635C163.416 12.0016 162.507 11.4033 161.507 11.0053C160.506 10.6074 159.435 10.4182 158.359 10.4495C153.504 10.6903 153.367 13.0428 153.37 13.2537C153.344 13.5766 152.752 21.2121 154.136 26.2407C154.333 27.0571 155.05 28.436 156.425 28.6897Z" fill="#D0CFCE"/>
<path d="M165.775 16.4174C165.291 15.7715 164.647 15.2627 163.907 14.9411C163.167 14.6196 162.356 14.4962 161.553 14.5833C156.711 14.7749 157.268 17.6049 157.268 17.6049C157.268 17.6049 157.249 18.5663 159.109 18.5663C160.564 18.5663 160.729 17.7422 160.729 17.7422C161.025 16.8733 162.783 16.984 162.783 16.984C162.783 16.984 163.74 19.6674 164.478 19.9183C165.216 20.1692 165.774 18.1931 165.774 18.1931C165.774 18.1931 166.687 17.6797 165.775 16.4174Z" fill="black"/>
<path d="M170.528 46.0264C170.437 46.0264 170.347 46.0085 170.262 45.9736C170.178 45.9388 170.102 45.8876 170.037 45.8231C169.973 45.7586 169.921 45.682 169.887 45.5978C169.852 45.5135 169.834 45.4232 169.834 45.3319C169.834 42.6912 165.82 38.081 164.274 36.528C164.172 36.4253 164.105 36.2935 164.082 36.1508C164.058 36.0081 164.08 35.8617 164.143 35.7318C164.208 35.6032 164.311 35.4975 164.438 35.429C164.565 35.3605 164.709 35.3325 164.853 35.3486C165.734 35.4679 166.628 35.4434 167.502 35.276C167.66 35.2293 167.83 35.2402 167.981 35.3069C168.132 35.3736 168.255 35.4917 168.327 35.6403C168.445 35.8864 171.223 41.7058 171.223 45.3319C171.223 45.4231 171.205 45.5134 171.17 45.5977C171.135 45.6819 171.084 45.7585 171.019 45.823C170.955 45.8875 170.878 45.9386 170.794 45.9735C170.71 46.0084 170.62 46.0264 170.528 46.0264Z" fill="black"/>
<path d="M162.876 17.1539C162.876 17.1539 164.281 21.2057 166.844 22.3945C168.754 23.2801 167.882 24.5737 167.882 24.5737C167.517 25.172 167.028 25.6848 166.447 26.0774" stroke="black" stroke-width="2" stroke-linecap="round" stroke-linejoin="round"/>
<path d="M164.686 20.5179C165.398 19.5329 165.816 18.3666 165.893 17.1539C165.893 15.3935 162.873 10.9208 158.374 11.1437C154.04 11.3583 154.043 13.3094 154.043 13.3094C154.043 13.3094 153.419 21.0884 154.792 26.0774C154.91 26.5102 155.109 26.9167 155.379 27.2753" stroke="black" stroke-width="2" stroke-linecap="round" stroke-linejoin="round"/>
<path d="M155.781 16.1001C156.421 19.4661 157.525 26.4848 156.931 32.2751C156.931 32.2751 164.001 38.5784 169.945 35.054L168.428 29.224C168.428 29.224 166.908 28.5062 164.164 29.224C164.164 29.224 168.428 29.224 169.251 32.3862" stroke="black" stroke-width="2" stroke-linecap="round" stroke-linejoin="round"/>
<path d="M162.876 24.7292C162.876 24.7292 166.112 23.0417 165.155 24.5465" stroke="black" stroke-width="2" stroke-linecap="round" stroke-linejoin="round"/>
<path d="M170.573 45.3572C164.629 48.8816 157.56 42.5783 157.56 42.5783" stroke="black" stroke-width="2" stroke-linecap="round" stroke-linejoin="round"/>
<path d="M170.573 45.3322C170.573 41.8221 167.746 35.9412 167.746 35.9412" stroke="black" stroke-width="2" stroke-linecap="round" stroke-linejoin="round"/>
<path d="M157.619 32.8302C157.125 33.9411 156.37 34.916 155.417 35.6715C154.548 36.2507 153.858 37.0623 153.427 38.0139" stroke="black" stroke-width="2" stroke-linecap="round" stroke-linejoin="round"/>
<defs>
<filter id="filter0_d_0_1" x="196.111" y="2.11111" width="54.7778" height="54.7778" filterUnits="userSpaceOnUse" color-interpolation-filters="sRGB">
<feFlood flood-opacity="0" result="BackgroundImageFix"/>
<feColorMatrix in="SourceAlpha" type="matrix" values="0 0 0 0 0 0 0 0 0 0 0 0 0 0 0 0 0 0 127 0" result="hardAlpha"/>
<feOffset dy="1"/>
<feGaussianBlur stdDeviation="0.5"/>
<feComposite in2="hardAlpha" operator="out"/>
<feColorMatrix type="matrix" values="0 0 0 0 0 0 0 0 0 0 0 0 0 0 0 0 0 0 0.17 0"/>
<feBlend mode="normal" in2="BackgroundImageFix" result="effect1_dropShadow_0_1"/>
<feBlend mode="normal" in="SourceGraphic" in2="effect1_dropShadow_0_1" result="shape"/>
</filter>
</defs>
</svg>
