<svg width="449" height="50" viewBox="0 0 449 50" fill="none" xmlns="http://www.w3.org/2000/svg">
<path d="M63.5 37.5V35.5C63.5 33 61 31 58.5 31C55.5 33.5 52.5 33.5 49.5 31C47 31 44.5 33 44.5 35.5V37.5H63.5Z" fill="#92D3F5"/>
<path d="M57.1 17C57.7 17.05 58.7 17.75 59.6 21.35V21.55C59.3598 22.553 59.0075 23.5258 58.55 24.45C58.55 24.45 57.6 25.95 57.2 23.85C55.0579 23.2499 52.7921 23.2499 50.65 23.85C50.25 25.95 49.3 24.45 49.3 24.45C48.8425 23.5258 48.4903 22.553 48.25 21.55V21.35C49.65 15.8 51.35 17.05 51.35 17.05C53.55 18 53.75 18.15 56.65 17.05C56.65 17.05 56.9 16.95 57.25 16.8L57.1 17Z" fill="#FCEA2B"/>
<path d="M56.8 24.6H51.3V28.4H56.8V24.6Z" fill="#FCEA2B"/>
<path d="M59.55 21.5V21.3C58.65 17.7 57.65 17 57.05 16.95V16.8C56.8754 16.8885 56.6907 16.9556 56.5 17C53.6 18.1 53.45 17.95 51.2 17C51.2 17 49.5 15.75 48.1 21.3V21.5C47.4929 19.2571 47.8557 16.8623 49.1 14.9C50.7 12.45 55.55 13.7 55.55 13.7L57.1 12.5L57.65 14.05L59.45 12.85C59.8124 13.7728 59.5745 14.8233 58.85 15.5L58.9 15.55C59.7917 17.4004 60.0212 19.5008 59.55 21.5ZM58.7 27.15C58.4361 27.6608 58.0801 28.1185 57.65 28.5C56.6264 29.3824 55.299 29.8307 53.95 29.75H53.8C52.451 29.8307 51.1237 29.3824 50.1 28.5C49.6845 28.1051 49.3305 27.65 49.05 27.15C48.313 25.7885 47.9832 24.2437 48.1 22.7C48.15 22.2 48.15 21.7 48.15 21.5C48.3903 22.5029 48.7425 23.4757 49.2 24.4C49.2 24.4 50.2 25.9 50.55 23.8C52.6921 23.1998 54.9579 23.1998 57.1 23.8C57.5 25.9 58.45 24.4 58.45 24.4C58.9076 23.4757 59.2598 22.5029 59.5 21.5C59.5944 21.8932 59.6447 22.2956 59.65 22.7C59.7668 24.2437 59.437 25.7885 58.7 27.15ZM56 25.55C55.9994 25.2741 55.7759 25.0506 55.5 25.05L53.95 25.8L52.45 25.05C52.1896 25.0343 51.9657 25.2326 51.95 25.4931C51.9489 25.512 51.9489 25.531 51.95 25.55V26.5C51.95 26.85 52.75 27.5 53.95 27.5C55.15 27.5 55.95 26.85 55.95 26.5V25.55H56Z" fill="#F1B31C"/>
<path d="M63.5 37V35.5C63.5 33 61 31 58.5 31C55.5 33.5 52.5 33.5 49.5 31C47 31 44.5 33 44.5 35.5V37" stroke="black" stroke-width="2" stroke-linecap="round" stroke-linejoin="round"/>
<path d="M56 20.35C56.5523 20.35 57 20.7977 57 21.35C57 21.9023 56.5523 22.35 56 22.35C55.4477 22.35 55 21.9023 55 21.35C55.0016 20.7984 55.4484 20.3516 56 20.35Z" fill="black"/>
<path d="M55.95 25.25C56.0583 25.4986 55.947 25.788 55.7 25.9C55.1599 26.1791 54.5578 26.3168 53.95 26.3C53.361 26.2923 52.7807 26.1557 52.25 25.9C52.0031 25.788 51.8918 25.4986 52 25.25C52.0933 25.0248 52.3514 24.9178 52.5766 25.0111C52.6022 25.0217 52.6268 25.0347 52.65 25.05C53.4405 25.5 54.4096 25.5 55.2 25.05C55.4626 24.8997 55.7972 24.9889 55.95 25.25Z" fill="black"/>
<path d="M52 20.35C52.5523 20.35 53 20.7977 53 21.35C53 21.9023 52.5523 22.35 52 22.35C51.4477 22.35 51 21.9023 51 21.35C51.0016 20.7984 51.4484 20.3516 52 20.35Z" fill="black"/>
<path d="M48.15 21.5C48.15 21.7 48.15 22.2 48.1 22.7C47.9832 24.2437 48.313 25.7885 49.05 27.15C49.3305 27.65 49.6845 28.105 50.1 28.5C51.1271 29.3764 52.4519 29.824 53.8 29.75" stroke="black" stroke-width="2" stroke-linecap="round" stroke-linejoin="round"/>
<path d="M59.6 21.35V21.55C59.3598 22.553 59.0076 23.5258 58.55 24.45C58.55 24.45 57.6 25.95 57.2 23.85C55.0579 23.2499 52.7921 23.2499 50.65 23.85C50.25 25.95 49.3 24.45 49.3 24.45C48.8425 23.5258 48.4903 22.553 48.25 21.55C48.25 21.5 48.15 20.9 48.15 20.8" stroke="black" stroke-width="2" stroke-linecap="round" stroke-linejoin="round"/>
<path d="M59.6 21.5C59.6 21.7 59.65 22.2 59.65 22.7C59.7668 24.2437 59.4371 25.7885 58.7001 27.15C58.4361 27.6608 58.0801 28.1184 57.65 28.5C56.6264 29.3824 55.2991 29.8308 53.9501 29.75H53.8" stroke="black" stroke-width="2" stroke-linecap="round" stroke-linejoin="round"/>
<path d="M48.15 21.5C47.5429 19.2571 47.9057 16.8624 49.15 14.9C50.75 12.45 55.6 13.7 55.6 13.7L57.15 12.5L57.7 14.05L59.4 12.8C59.7623 13.7228 59.5245 14.7733 58.8 15.45C58.2962 15.9681 57.7035 16.3915 57.05 16.7C56.8633 16.8122 56.6611 16.8964 56.45 16.95C53.55 18.05 53.4 17.9 51.15 16.95C51.15 16.95 49.5 15.7 48.1 21.25" stroke="black" stroke-width="2" stroke-linecap="round" stroke-linejoin="round"/>
<path d="M57 16.95H57.1C57.7 17 58.7 17.7 59.6 21.3" stroke="black" stroke-width="2" stroke-linecap="round" stroke-linejoin="round"/>
<path d="M58.9 15.55C59.7935 17.3989 60.04 19.4943 59.6 21.5" stroke="black" stroke-width="2" stroke-linecap="round" stroke-linejoin="round"/>
<path d="M294 41.6667C303.205 41.6667 310.667 34.2047 310.667 25C310.667 15.7952 303.205 8.33333 294 8.33333C284.795 8.33333 277.333 15.7952 277.333 25C277.333 34.2047 284.795 41.6667 294 41.6667Z" fill="#FCEA2B"/>
<path d="M286.391 14.748L291.937 13.9142L289.225 18.8233L291.732 23.8401L286.225 22.7783L282.228 26.7126L281.536 21.1472L276.56 18.5619L281.639 16.1842L282.56 10.652L286.391 14.748Z" fill="#F1B31C"/>
<path d="M301.557 14.748L296.011 13.9142L298.723 18.8233L296.216 23.8401L301.723 22.7783L305.719 26.7126L306.411 21.1472L311.388 18.5619L306.309 16.1842L305.388 10.652L301.557 14.748Z" fill="#F1B31C"/>
<path d="M303.54 32.1917C302.297 35.1569 299.13 37.2125 294.026 37.2125C288.88 37.2125 285.672 35.1083 284.443 32.1014C285.852 32.4208 294.845 34.3027 303.54 32.1917Z" fill="#EA5A47"/>
<path d="M304.144 29.0736C304.144 30.1847 303.942 31.2333 303.54 32.1917C294.845 34.3028 285.852 32.4208 284.442 32.1014C284.061 31.1639 283.866 30.1431 283.866 29.0736H283.942C283.942 29.0736 294.227 31.5667 304.005 29.1222L304.144 29.0736Z" fill="white"/>
<path d="M304.144 29.0736C304.144 30.1847 303.942 31.2333 303.54 32.1917C294.845 34.3028 285.852 32.4208 284.442 32.1014C284.061 31.1639 283.866 30.1431 283.866 29.0736H283.942C283.942 29.0736 294.227 31.5667 304.005 29.1222L304.144 29.0736Z" stroke="black" stroke-width="2" stroke-miterlimit="10" stroke-linecap="round" stroke-linejoin="round"/>
<path d="M303.54 32.1917C302.297 35.1569 299.13 37.2125 294.026 37.2125C288.88 37.2125 285.672 35.1083 284.442 32.1014C285.852 32.4208 294.845 34.3027 303.54 32.1917Z" stroke="black" stroke-width="2" stroke-miterlimit="10" stroke-linejoin="round"/>
<path d="M303.88 32.1083C303.769 32.1361 303.651 32.1639 303.54 32.1917" stroke="black" stroke-width="2" stroke-miterlimit="10" stroke-linejoin="round"/>
<path d="M284.442 32.1014C284.31 32.0667 284.248 32.0528 284.248 32.0528" stroke="black" stroke-width="2" stroke-miterlimit="10" stroke-linejoin="round"/>
<path d="M301.329 10.8049C299.134 9.66923 296.642 9.02777 294 9.02777C291.254 9.02777 288.669 9.72076 286.412 10.9414C286.378 10.9602 286.343 10.9792 286.308 10.9983" stroke="black" stroke-width="2" stroke-miterlimit="10" stroke-linecap="round" stroke-linejoin="round"/>
<path d="M278.163 22.9135C278.074 23.5963 278.028 24.2928 278.028 25C278.028 33.821 285.178 40.9722 294 40.9722C302.821 40.9722 309.972 33.821 309.972 25C309.972 24.3005 309.927 23.6115 309.84 22.9357" stroke="black" stroke-width="2" stroke-miterlimit="10" stroke-linecap="round" stroke-linejoin="round"/>
<path d="M286.443 14.748L291.989 13.9142L289.277 18.8233L291.784 23.8401L286.277 22.7783L282.281 26.7126L281.589 21.1472L276.612 18.5619L281.691 16.1842L282.612 10.652L286.443 14.748Z" stroke="black" stroke-width="2" stroke-miterlimit="10" stroke-linecap="round" stroke-linejoin="round"/>
<path d="M301.557 14.748L296.011 13.9142L298.723 18.8233L296.216 23.8401L301.723 22.7783L305.719 26.7126L306.411 21.1472L311.388 18.5619L306.309 16.1842L305.388 10.652L301.557 14.748Z" stroke="black" stroke-width="2" stroke-miterlimit="10" stroke-linecap="round" stroke-linejoin="round"/>
<path d="M101 38.4167C108.41 38.4167 114.417 32.4098 114.417 25C114.417 17.5902 108.41 11.5833 101 11.5833C93.5902 11.5833 87.5834 17.5902 87.5834 25C87.5834 32.4098 93.5902 38.4167 101 38.4167Z" fill="#FCEA2B"/>
<path d="M109.514 28.29C109.521 29.1881 109.348 30.0786 109.006 30.9092C101.72 32.6767 94.1721 31.1075 92.9704 30.8333C92.6445 30.0253 92.48 29.1613 92.4863 28.29H92.5504C92.5504 28.29 101.184 30.3842 109.403 28.3308L109.514 28.29Z" fill="white"/>
<path d="M109.006 30.9092C107.962 33.4 105.302 35.1267 101.02 35.1267C96.698 35.1267 94.003 33.3592 92.9705 30.8333C94.1721 31.1075 101.72 32.6767 109.006 30.9092Z" fill="#EA5A47"/>
<path d="M101 38.4167C108.41 38.4167 114.417 32.4098 114.417 25C114.417 17.5902 108.41 11.5833 101 11.5833C93.5902 11.5833 87.5834 17.5902 87.5834 25C87.5834 32.4098 93.5902 38.4167 101 38.4167Z" stroke="black" stroke-width="2" stroke-linecap="round" stroke-linejoin="round"/>
<path d="M109.514 28.29C109.521 29.1881 109.348 30.0786 109.006 30.9092C101.72 32.6767 94.1721 31.1075 92.9704 30.8333C92.6445 30.0253 92.48 29.1613 92.4863 28.29H92.5504C92.5504 28.29 101.184 30.3842 109.403 28.3308L109.514 28.29Z" stroke="black" stroke-width="2" stroke-linecap="round" stroke-linejoin="round"/>
<path d="M109.006 30.9092C107.962 33.4 105.302 35.1267 101.02 35.1267C96.698 35.1267 94.003 33.3592 92.9705 30.8333C94.1721 31.1075 101.72 32.6767 109.006 30.9092Z" stroke="black" stroke-width="2" stroke-linecap="round" stroke-linejoin="round"/>
<path d="M98.4883 22.9021C98.2717 22.4147 97.9185 22.0006 97.4713 21.7099C97.0241 21.4192 96.5022 21.2645 95.9688 21.2645C95.4355 21.2645 94.9136 21.4192 94.4664 21.7099C94.0192 22.0006 93.6659 22.4147 93.4493 22.9021" stroke="black" stroke-width="2" stroke-miterlimit="10" stroke-linecap="round"/>
<path d="M108.551 22.9021C108.334 22.4147 107.981 22.0006 107.534 21.7099C107.087 21.4192 106.565 21.2645 106.031 21.2645C105.498 21.2645 104.976 21.4192 104.529 21.7099C104.082 22.0006 103.728 22.4147 103.512 22.9021" stroke="black" stroke-width="2" stroke-miterlimit="10" stroke-linecap="round"/>
<path d="M336.917 39.5833V37.25C336.917 34.3368 339.838 32 342.75 32C346.25 34.9167 349.75 34.9167 353.25 32C356.163 32 359.083 34.3368 359.083 37.25V39.5833" fill="#92D3F5"/>
<path d="M342.167 26.75C339.833 26.75 339.833 23.25 339.833 19.1667C339.833 15.0833 342.167 11 348 11C353.833 11 356.167 15.0833 356.167 19.1667C356.167 23.25 356.167 26.75 353.833 26.75" fill="#E27022"/>
<path d="M341.546 22.0833C341.546 27.3333 344.426 30.25 347.963 30.25C351.426 30.25 354.417 27.3333 354.417 22.0833C354.417 20.3333 353.833 19.1664 353.833 19.1664C352.083 17.4167 349.75 14.4997 349.75 14.4997C347.417 16.2497 345.667 17.9997 342.167 18.5833C342.167 18.5833 341.546 19.1664 341.546 22.0833Z" fill="#FCEA2B"/>
<path d="M342.167 26.75C339.833 26.75 339.833 23.25 339.833 19.1667C339.833 15.0833 342.167 11 348 11C353.833 11 356.167 15.0833 356.167 19.1667C356.167 23.25 356.167 26.75 353.833 26.75" stroke="black" stroke-width="2" stroke-linecap="round" stroke-linejoin="round"/>
<path d="M336.917 39V37.25C336.917 34.3368 339.838 32 342.75 32C346.25 34.9167 349.75 34.9167 353.25 32C356.163 32 359.083 34.3368 359.083 37.25V39" stroke="black" stroke-width="2" stroke-linecap="round" stroke-linejoin="round"/>
<path d="M351.426 21.5C351.426 22.1443 350.903 22.6667 350.259 22.6667C349.615 22.6667 349.093 22.1443 349.093 21.5C349.093 20.8557 349.615 20.3333 350.259 20.3333C350.903 20.3333 351.426 20.8557 351.426 21.5Z" fill="black"/>
<path d="M346.759 21.5C346.759 22.1443 346.237 22.6667 345.593 22.6667C344.948 22.6667 344.426 22.1443 344.426 21.5C344.426 20.8557 344.948 20.3333 345.593 20.3333C346.237 20.3333 346.759 20.8557 346.759 21.5Z" fill="black"/>
<path d="M341.546 22.0833C341.546 27.3333 344.426 30.25 347.963 30.25C351.426 30.25 354.417 27.3333 354.417 22.0833C354.417 20.3333 353.833 19.1664 353.833 19.1664C352.083 17.4167 349.75 14.4997 349.75 14.4997C347.417 16.2497 345.667 17.9997 342.167 18.5833C342.167 18.5833 341.546 19.1664 341.546 22.0833Z" stroke="black" stroke-width="2" stroke-linejoin="round"/>
<path d="M346.25 26.1667C347.381 26.7141 348.583 26.75 349.75 26.1667" stroke="black" stroke-width="2" stroke-linecap="round" stroke-linejoin="round"/>
<path d="M427.197 22.7659C427.182 22.9309 427.049 23.0644 426.883 23.0821C424.877 23.2971 423.333 25.2727 423.333 27.6776C423.333 30.226 425.101 32.2918 427.281 32.2918H442.33C444.725 32.2918 446.667 30.1086 446.667 27.4155C446.667 24.8346 444.883 22.722 442.627 22.5505C442.454 22.5374 442.314 22.4165 442.281 22.2474C441.777 19.6587 439.452 17.7134 436.702 17.7134C434.915 17.7134 433.323 18.5224 432.29 19.8093C432.189 19.935 432.019 19.9926 431.87 19.9301C431.472 19.7633 431.052 19.6826 430.582 19.6826C428.806 19.6826 427.348 21.0381 427.197 22.7659Z" fill="white"/>
<path d="M427.197 22.7659C427.182 22.9309 427.049 23.0644 426.885 23.082C424.877 23.2961 423.333 25.2721 423.333 27.6776C423.333 30.226 425.101 32.2918 427.281 32.2918H442.33C444.725 32.2918 446.667 30.1086 446.667 27.4155C446.667 24.8341 444.883 22.7212 442.626 22.5504C442.454 22.5374 442.314 22.4165 442.281 22.2473C441.777 19.6587 439.451 17.7134 436.702 17.7134C434.915 17.7134 433.322 18.5229 432.289 19.8106C432.188 19.9357 432.02 19.9933 431.872 19.9311C431.474 19.7636 431.053 19.6826 430.582 19.6826C428.806 19.6826 427.348 21.0381 427.197 22.7659Z" stroke="black" stroke-width="2" stroke-miterlimit="10" stroke-linecap="round" stroke-linejoin="round"/>
<path d="M13.8873 36.1417C15.7458 36.1417 16.8075 35.269 17.0591 34.1385H10.7163C10.9679 35.269 12.0288 36.1417 13.8873 36.1417Z" fill="#D0CFCE"/>
<path d="M17.6945 15.0483C17.6945 15.0483 12.9384 13.7039 10.6167 15.5418C8.29547 17.3797 7.64136 21.6085 7.64136 21.6085C7.86878 22.4691 9.2848 24.9113 9.2848 24.9113C9.4948 25.2656 10.161 28.0151 10.5483 29.5236H17.2255C17.5624 28.4172 18.9172 24.2152 19.0941 23.803C19.3212 23.2729 19.7086 22.2412 19.9042 21.8519C20.3747 20.9151 20.1133 20.1194 20.1133 19.1192C20.1133 16.9854 19.3737 16.1147 17.6941 15.0476L17.6945 15.0483Z" fill="#FCEA2B"/>
<path d="M13.8873 13.8008C10.5693 13.8008 7.4706 16.4266 7.4706 19.743C7.4706 20.1626 7.36789 21.4895 7.94388 21.4895C7.94388 21.4895 8.87449 18.4464 11.1958 16.6089C13.517 14.7714 17.2313 15.1603 17.2313 15.1603C16.9729 14.3651 15.073 13.7996 13.8884 13.7996L13.8873 13.8008Z" fill="white"/>
<path d="M20.4361 20.2361C20.4361 21.7858 19.7419 22.5337 18.9762 24.3194C18.7806 24.7752 17.3386 29.5228 17.3386 29.5228H10.6613C10.6613 29.5228 9.50206 24.9844 9.28234 24.615C8.36068 23.0602 7.56384 21.9278 7.56384 20.2361C7.56384 16.6813 10.4455 13.8 14 13.8C17.5548 13.8 20.4361 16.6817 20.4361 20.2361Z" stroke="black" stroke-width="2" stroke-miterlimit="10" stroke-linecap="round" stroke-linejoin="round"/>
<path d="M14 29.3633V24.72" stroke="black" stroke-width="2" stroke-miterlimit="10" stroke-linecap="round" stroke-linejoin="round"/>
<path d="M16.3217 24.72H11.6783" stroke="black" stroke-width="2" stroke-miterlimit="10" stroke-linecap="round" stroke-linejoin="round"/>
<path d="M17.1733 33.8628C17.1733 35.1228 15.7535 36.1444 14.002 36.1444C12.2504 36.1444 10.8306 35.1228 10.8306 33.8628H17.1733Z" stroke="black" stroke-width="1.696" stroke-miterlimit="10" stroke-linecap="round" stroke-linejoin="round"/>
<path d="M10.885 32.3811L17.115 31.0317" stroke="black" stroke-width="1.965" stroke-miterlimit="10" stroke-linecap="round" stroke-linejoin="round"/>
<path d="M14.8555 32.805L17.1032 32.3461" stroke="black" stroke-width="2" stroke-miterlimit="10" stroke-linecap="round" stroke-linejoin="round"/>
<path d="M10.8966 31.0667L13.1444 30.6078" stroke="black" stroke-width="2" stroke-miterlimit="10" stroke-linecap="round" stroke-linejoin="round"/>
<path d="M388.75 14.2928L386.5 15.1678L382.875 19.4178L380.625 24.7928L381.625 27.4178C382.253 29.3133 383.387 31.0094 385.25 32.4178L386.5 30.7511C386.5 30.7511 388.411 34.606 391.869 35.231C391.869 35.231 397 36.199 399.667 34.7928C401.377 33.8909 401.875 32.5844 401.875 32.5844L403.583 30.8761L404.375 32.0427L405.417 32.0011L408.125 28.3761L409 25.6678L408.917 23.4178L407.75 20.6678L405.333 16.9594C405.333 16.9594 404 14.5011 401.25 15.0011C401.25 15.0011 398 12.5844 395.333 12.9594C392.667 13.3344 393.042 12.3344 388.75 14.2928Z" fill="#F4AA41"/>
<path d="M395 30.6261L393.458 31.8344H392.208L392.167 33.7511L392.542 35.5011L393.083 36.4594L394.5 37.2094L396.792 36.9178L397.583 36.0428L398.083 33.9178L397.958 31.9178L396.958 32.0428L395 30.6261Z" fill="#EA5A47"/>
<path d="M393.25 25.4594L392.458 27.3344L393.542 27.9594L394.167 28.2094L396.333 28.2928L397.792 27.1678L396.917 25.5428L393.25 25.4594Z" fill="#3F3F3F"/>
<path d="M391.753 22.0544C391.753 22.0544 390.85 22.6756 390.379 22.3883C389.907 22.1011 389.757 21.4858 390.045 21.0141C390.332 20.5425 390.947 20.3929 391.419 20.6802C391.891 20.9674 391.753 22.0544 391.753 22.0544Z" fill="black"/>
<path d="M393.554 25.503H396.627C396.828 25.503 397.009 25.6229 397.087 25.8075L397.666 27.1697L396.577 27.7425C396.269 27.9043 395.894 27.7103 395.848 27.3655" stroke="black" stroke-width="2" stroke-miterlimit="10" stroke-linecap="round" stroke-linejoin="round"/>
<path d="M394.38 27.3815C394.324 27.6949 393.992 27.8763 393.698 27.7551L392.541 27.2791L393.086 25.8273C393.159 25.6323 393.346 25.503 393.554 25.503" stroke="black" stroke-width="2" stroke-miterlimit="10" stroke-linecap="round" stroke-linejoin="round"/>
<path d="M392.218 32.0134C392.218 32.0134 391.859 36.4101 393.722 36.9821C395.045 37.3884 396.297 37.2483 396.753 36.8571C397.191 36.4821 398.069 34.6201 397.666 32.0134" stroke="black" stroke-width="2" stroke-miterlimit="10" stroke-linecap="round" stroke-linejoin="round"/>
<path d="M399.132 22.0544C399.132 22.0544 400.034 22.6756 400.506 22.3884C400.978 22.1011 401.127 21.4858 400.84 21.0142C400.553 20.5425 399.937 20.393 399.466 20.6802C398.994 20.9675 399.132 22.0544 399.132 22.0544Z" fill="black"/>
<path d="M389.812 28.4196C389.575 30.2208 390.929 31.2949 391.955 31.8403C392.553 32.1587 393.28 32.0994 393.813 31.6813L395.104 30.6696L396.394 31.6813C396.928 32.0994 397.655 32.1587 398.253 31.8403C399.278 31.2949 400.633 30.2208 400.396 28.4196" stroke="black" stroke-width="2" stroke-miterlimit="10" stroke-linecap="round" stroke-linejoin="round"/>
<path d="M386.975 21.1786C385.817 23.7585 386.721 27.6911 387.035 28.8666C387.096 29.0951 387.073 29.3343 386.971 29.5481L385.978 31.645C385.666 32.3023 384.781 32.4216 384.312 31.8654C382.716 29.9719 380.033 26.1705 381.038 23.5224C384.569 14.2172 388.972 14.451 388.972 14.451C390.394 13.4842 395.524 10.9822 401.378 14.8885C401.378 14.8885 405.694 14.0297 408.847 23.3572C409.749 26.0253 407.132 29.7906 405.571 31.6793C405.106 32.2428 404.213 32.1263 403.9 31.4657L402.913 29.3829C402.812 29.1692 402.789 28.9299 402.85 28.7014C403.163 27.5259 404.067 23.5933 402.909 21.0134" stroke="black" stroke-width="2" stroke-miterlimit="10" stroke-linecap="round" stroke-linejoin="round"/>
<path d="M403.315 30.2314C403.315 30.2314 401.776 33.5922 399.413 34.367" stroke="black" stroke-width="2" stroke-miterlimit="10" stroke-linecap="round" stroke-linejoin="round"/>
<path d="M386.719 30.4845C386.719 30.4845 388.258 33.5256 390.621 34.3005" stroke="black" stroke-width="2" stroke-miterlimit="10" stroke-linecap="round" stroke-linejoin="round"/>
<path d="M395.104 30.6696V29.1546" stroke="black" stroke-width="2" stroke-miterlimit="10" stroke-linecap="round" stroke-linejoin="round"/>
<path d="M171.21 42.5953C171.228 42.5075 171.246 42.4197 171.263 42.3319C171.263 38.7058 168.486 32.8864 168.368 32.6403C168.36 32.6234 168.344 32.6133 168.335 32.5974C168.292 32.5234 168.236 32.4573 168.17 32.4021C168.119 32.3612 168.062 32.3279 168.001 32.3032C167.983 32.2958 167.967 32.2881 167.948 32.2824C167.879 32.2608 167.808 32.2503 167.737 32.2512C167.72 32.2512 167.705 32.2512 167.688 32.2523C167.654 32.2504 167.621 32.2511 167.587 32.2544C163.652 33.1401 159.598 30.4674 158.035 29.2773C158.012 29.2642 157.988 29.2526 157.963 29.2426C157.943 29.2258 157.921 29.2102 157.898 29.1961C157.88 29.1877 157.86 29.1898 157.841 29.1832C157.754 29.1557 157.664 29.1428 157.573 29.1449C157.486 29.1537 157.4 29.1759 157.319 29.2108C157.282 29.2296 157.246 29.2517 157.213 29.2769C157.174 29.3046 157.138 29.3363 157.105 29.3717C157.092 29.3862 157.074 29.3938 157.062 29.4097C157.049 29.4327 157.037 29.4564 157.027 29.4808C157.01 29.5018 156.995 29.5238 156.98 29.5467C156.538 30.5413 155.866 31.4165 155.019 32.1C154.045 32.7519 153.272 33.6633 152.788 34.7313C152.78 34.7499 152.782 34.7694 152.775 34.7883C152.76 34.8329 152.75 34.8789 152.744 34.9255C152.728 35.0589 152.75 35.1941 152.807 35.3157C152.815 35.3335 152.816 35.3529 152.826 35.3701C153.978 37.1871 155.431 38.7944 157.123 40.123C157.517 40.4703 161.793 44.1341 166.576 44.1341C168.106 44.1446 169.609 43.7368 170.923 42.9548C171.052 42.8749 171.15 42.7543 171.202 42.6122L171.21 42.5953Z" fill="#D0CFCE"/>
<path d="M156.425 25.6897C156.429 26.8631 156.374 28.0358 156.26 29.2036C156.248 29.313 156.263 29.4234 156.303 29.5259C156.343 29.6283 156.407 29.7199 156.489 29.7929C156.518 29.819 156.612 29.9014 156.762 30.0253C156.894 29.7829 156.981 29.5987 157.005 29.5462C157.019 29.5232 157.035 29.5012 157.052 29.4802C157.062 29.4559 157.073 29.4321 157.086 29.4092C157.098 29.3933 157.116 29.3857 157.129 29.3711C157.162 29.3358 157.198 29.304 157.237 29.2764C157.27 29.2512 157.306 29.229 157.343 29.2103C157.424 29.1754 157.51 29.1532 157.597 29.1444C157.688 29.1422 157.778 29.1552 157.865 29.1826C157.884 29.1892 157.903 29.1871 157.922 29.1956C157.945 29.2097 157.966 29.2252 157.987 29.242C158.012 29.2521 158.036 29.2637 158.059 29.2767C159.622 30.4669 163.676 33.1396 167.611 32.2539C167.645 32.2506 167.678 32.2499 167.712 32.2517C167.729 32.2504 167.744 32.2508 167.761 32.2507C167.832 32.2497 167.903 32.2602 167.972 32.2818C167.99 32.2876 168.007 32.2953 168.025 32.3026C168.086 32.3273 168.143 32.3606 168.194 32.4015C168.215 32.4191 168.235 32.438 168.254 32.4581C168.295 32.4997 168.33 32.5463 168.359 32.597C168.368 32.6129 168.383 32.6231 168.392 32.6399C168.415 32.6885 168.544 32.9594 168.732 33.3819C169.285 33.1937 169.816 32.9487 170.318 32.6508C170.448 32.574 170.549 32.4571 170.606 32.3177C170.663 32.1784 170.674 32.0242 170.636 31.8783L169.944 29.2182L169.942 29.2112L169.938 29.1944L169.12 26.0491C169.094 25.9506 169.047 25.859 168.982 25.7807C168.917 25.7024 168.836 25.6394 168.744 25.5961C168.365 25.4433 167.967 25.3406 167.561 25.2906C167.262 24.7219 167.111 24.0872 167.121 23.4448C167.675 23.0287 168.145 22.5103 168.505 21.9176C168.643 21.6866 168.734 21.4302 168.771 21.1637C168.809 20.8971 168.793 20.6257 168.725 20.3653C168.598 19.9989 168.392 19.6652 168.12 19.3883C167.849 19.1114 167.519 18.8982 167.155 18.7641C166.539 18.4526 165.996 18.0138 165.562 17.4769C166.197 16.4806 166.557 15.3343 166.607 14.1539C166.607 12.9312 165.607 11.1252 164.176 9.76347C163.416 9.00156 162.507 8.40325 161.507 8.00532C160.506 7.6074 159.435 7.41825 158.359 7.44951C153.504 7.69028 153.367 10.0428 153.37 10.2537C153.344 10.5766 152.752 18.2121 154.136 23.2407C154.333 24.0571 155.05 25.436 156.425 25.6897Z" fill="#D0CFCE"/>
<path d="M165.775 13.4174C165.291 12.7715 164.647 12.2627 163.907 11.9411C163.167 11.6196 162.356 11.4962 161.553 11.5833C156.711 11.7749 157.268 14.6049 157.268 14.6049C157.268 14.6049 157.249 15.5663 159.109 15.5663C160.564 15.5663 160.729 14.7422 160.729 14.7422C161.025 13.8733 162.783 13.984 162.783 13.984C162.783 13.984 163.74 16.6674 164.478 16.9183C165.216 17.1692 165.774 15.1931 165.774 15.1931C165.774 15.1931 166.687 14.6797 165.775 13.4174Z" fill="black"/>
<path d="M170.528 43.0264C170.437 43.0264 170.347 43.0085 170.262 42.9736C170.178 42.9388 170.102 42.8876 170.037 42.8231C169.973 42.7586 169.921 42.682 169.887 42.5978C169.852 42.5135 169.834 42.4232 169.834 42.3319C169.834 39.6912 165.82 35.081 164.274 33.528C164.172 33.4253 164.105 33.2935 164.082 33.1508C164.058 33.0081 164.08 32.8617 164.143 32.7318C164.208 32.6032 164.311 32.4975 164.438 32.429C164.565 32.3605 164.709 32.3325 164.853 32.3486C165.734 32.4679 166.628 32.4434 167.502 32.276C167.66 32.2293 167.83 32.2402 167.981 32.3069C168.132 32.3736 168.255 32.4917 168.327 32.6403C168.445 32.8864 171.223 38.7058 171.223 42.3319C171.223 42.4231 171.205 42.5134 171.17 42.5977C171.135 42.6819 171.084 42.7585 171.019 42.823C170.955 42.8875 170.878 42.9386 170.794 42.9735C170.71 43.0084 170.62 43.0264 170.528 43.0264Z" fill="black"/>
<path d="M162.876 14.1539C162.876 14.1539 164.281 18.2057 166.844 19.3945C168.754 20.2801 167.882 21.5737 167.882 21.5737C167.517 22.172 167.028 22.6848 166.447 23.0774" stroke="black" stroke-width="2" stroke-linecap="round" stroke-linejoin="round"/>
<path d="M164.686 17.5179C165.398 16.5329 165.816 15.3666 165.893 14.1539C165.893 12.3935 162.873 7.92084 158.374 8.14368C154.04 8.35834 154.043 10.3094 154.043 10.3094C154.043 10.3094 153.419 18.0884 154.792 23.0774C154.91 23.5102 155.109 23.9167 155.379 24.2753" stroke="black" stroke-width="2" stroke-linecap="round" stroke-linejoin="round"/>
<path d="M155.781 13.1001C156.421 16.4661 157.525 23.4848 156.931 29.2751C156.931 29.2751 164.001 35.5784 169.945 32.054L168.428 26.224C168.428 26.224 166.908 25.5062 164.164 26.224C164.164 26.224 168.428 26.224 169.251 29.3862" stroke="black" stroke-width="2" stroke-linecap="round" stroke-linejoin="round"/>
<path d="M162.876 21.7292C162.876 21.7292 166.112 20.0417 165.155 21.5465" stroke="black" stroke-width="2" stroke-linecap="round" stroke-linejoin="round"/>
<path d="M170.573 42.3572C164.629 45.8816 157.56 39.5783 157.56 39.5783" stroke="black" stroke-width="2" stroke-linecap="round" stroke-linejoin="round"/>
<path d="M170.573 42.3322C170.573 38.8221 167.746 32.9412 167.746 32.9412" stroke="black" stroke-width="2" stroke-linecap="round" stroke-linejoin="round"/>
<path d="M157.619 29.8302C157.125 30.9411 156.37 31.916 155.417 32.6715C154.548 33.2507 153.858 34.0623 153.427 35.0139" stroke="black" stroke-width="2" stroke-linecap="round" stroke-linejoin="round"/>
</svg>
