<svg width="100" height="100" viewBox="0 0 100 100" fill="none" xmlns="http://www.w3.org/2000/svg">
<rect x="1" y="1" width="98" height="98" rx="20" fill="white" stroke="black" stroke-width="2"/>
<path d="M12.6367 38H17.0313L24.6719 56.6562H24.9531L32.5938 38H36.9883V62H33.543V44.6328H33.3203L26.2422 61.9648H23.3828L16.3047 44.6211H16.082V62H12.6367V38Z" fill="black"/>
<path d="M89.7778 50.7778C90.2074 50.3482 90.2074 49.6518 89.7778 49.2222L82.7775 42.2218C82.3479 41.7922 81.6514 41.7922 81.2218 42.2218C80.7922 42.6514 80.7922 43.3479 81.2218 43.7775L87.4444 50L81.2218 56.2225C80.7922 56.6521 80.7922 57.3486 81.2218 57.7782C81.6514 58.2078 82.3479 58.2078 82.7775 57.7782L89.7778 50.7778ZM47 51.1H89V48.9H47V51.1Z" fill="black"/>
</svg>
