<svg width="100" height="100" viewBox="0 0 100 100" fill="none" xmlns="http://www.w3.org/2000/svg">
<rect x="2" y="2" width="96" height="96" rx="19" fill="white" stroke="black" stroke-width="4"/>
<path d="M15.6367 38H20.0313L27.6719 56.6562H27.9531L35.5938 38H39.9883V62H36.543V44.6328H36.3203L29.2422 61.9648H26.3828L19.3047 44.6211H19.082V62H15.6367V38Z" fill="black"/>
<path d="M87.8839 50.8839C88.372 50.3957 88.372 49.6043 87.8839 49.1161L79.9289 41.1612C79.4408 40.673 78.6493 40.673 78.1612 41.1612C77.673 41.6493 77.673 42.4408 78.1612 42.9289L85.2322 50L78.1612 57.0711C77.673 57.5592 77.673 58.3507 78.1612 58.8388C78.6493 59.327 79.4408 59.327 79.9289 58.8388L87.8839 50.8839ZM48 51.25L87 51.25V48.75L48 48.75V51.25Z" fill="black"/>
</svg>
