<svg width="108" height="110" viewBox="0 0 108 110" fill="none" xmlns="http://www.w3.org/2000/svg">
<g filter="url(#filter0_d_211_8)">
<rect x="4" y="4" width="100" height="100" rx="21" fill="white"/>
</g>
<path d="M16.6367 42H21.0313L28.6719 60.6562H28.9531L36.5938 42H40.9883V66H37.543V48.6328H37.3203L30.2422 65.9648H27.3828L20.3047 48.6211H20.082V66H16.6367V42Z" fill="black"/>
<path d="M93.7778 54.7778C94.2074 54.3482 94.2074 53.6518 93.7778 53.2222L86.7775 46.2218C86.3479 45.7922 85.6514 45.7922 85.2218 46.2218C84.7922 46.6514 84.7922 47.3479 85.2218 47.7775L91.4444 54L85.2218 60.2225C84.7922 60.6521 84.7922 61.3486 85.2218 61.7782C85.6514 62.2078 86.3479 62.2078 86.7775 61.7782L93.7778 54.7778ZM51 55.1H93V52.9H51V55.1Z" fill="black"/>
<defs>
<filter id="filter0_d_211_8" x="0" y="1.7" width="108" height="108" filterUnits="userSpaceOnUse" color-interpolation-filters="sRGB">
<feFlood flood-opacity="0" result="BackgroundImageFix"/>
<feColorMatrix in="SourceAlpha" type="matrix" values="0 0 0 0 0 0 0 0 0 0 0 0 0 0 0 0 0 0 127 0" result="hardAlpha"/>
<feOffset dy="1.7"/>
<feGaussianBlur stdDeviation="2"/>
<feComposite in2="hardAlpha" operator="out"/>
<feColorMatrix type="matrix" values="0 0 0 0 0 0 0 0 0 0 0 0 0 0 0 0 0 0 0.2 0"/>
<feBlend mode="normal" in2="BackgroundImageFix" result="effect1_dropShadow_211_8"/>
<feBlend mode="normal" in="SourceGraphic" in2="effect1_dropShadow_211_8" result="shape"/>
</filter>
</defs>
</svg>
